/* XPM */
static char *_0b8b841903548eb820c4fe60f02911fId55SuDQN6wLtKt5[] = {
/* columns rows colors chars-per-pixel */
"50 50 25 1 ",
"  c LightGray",
". c gray84",
"X c #D7D7D7",
"o c #D8D8D8",
"O c gray85",
"+ c #DADADA",
"@ c gray86",
"# c gainsboro",
"$ c #DDDDDD",
"% c gray87",
"& c #DFDFDF",
"* c gray88",
"= c #E1E1E1",
"- c #E2E2E2",
"; c gray89",
": c #E4E4E4",
"> c gray90",
", c #E6E6E6",
"< c #E7E7E7",
"1 c gray91",
"2 c #E9E9E9",
"3 c #EAEAEA",
"4 c gray92",
"5 c #ECECEC",
"6 c gray93",
/* pixels */
"****:::2::::*#**######@@*::::::::2::2::2#:2:::*#:*",
"::::***:::::::*###*#####***:::::****:::2::::*::*::",
":::::*:*::::22*#***####****:**:::::**::2:2:::2:*2:",
"*::*:::22:222:*******###*****#**622:::::22:226:::2",
"***:::22:22::**::::***#********::::**::222:26222::",
"*:***:::22::#*::222:**#******::22:::::2222:22222::",
":::::::22::**:::::2::*::*::**::222::::2:22:222:::*",
"::::2:22:***::2::2:::::::2::::::***:::::62222*:222",
"::*::2::*22:::::22:::222*::22222::::::::2::22::22:",
"******#**:::*:::::**::::::::2::::::::*:::2:2:::::2",
"*********::**:::******:::*::::2::::***::::::2:::2:",
"***:**:2::**:::*:::**:::::::2:22:::****:::::2::::2",
"##****::2::*::::::2:::22222::::2:2:::*:::::::2::2:",
"***####*:::::::::::::::222222::22:2:22222::22:2:::",
"********#*::::2:2:::22:2:2:2222222222222222:22::2:",
"****:***#*::::222::2222:226622::::2266226222222*22",
"*******::2222:::222:2222:2222222:22666262222:222::",
"::****:**:::22:22::::::622226226222262626226222:22",
"::::::::*:**:::22222::2622666666222222666666222:2:",
"2::::::::22:::::2:222::22226226262622226662222:2::",
"::::2:2:22222:*:*:2::**:222266266662226662222:::22",
"*::::::::2226::2*::22:::2666666626222222222:::*::2",
"::::::::*:::22:22:2:2226262626266222222:22:2::::::",
"::::::**:2::2::262:::::2:2262622:222222:::::::*:::",
":*:*****#**22::2222**:::2:262626:2222:::::::**::22",
"*:*::**:#**:2::::2::*::::**:2:2:22::::*:*::::**:::",
"**:*::::***:::::*::2:**::**::62:22::*:*****:**::**",
"::*****:****:::2*:22:***:2:*:22::***::::*****:::62",
":**###*****::::222::***:*2:*#::*****:2:***:**:::2:",
":*#@@@#*:***:2:22*::*#***:2:***:::::::**:::::**:**",
"**####**:**:::*::*#*:****:::::::::::::*:::**::::22",
"*#*###*#:***::***###*****#:::::2******:2:*:**:*:**",
"2::***#@#**::**###******::::::::********:**:*##*:*",
"***#**##*#**:**###*****::*::::::::*:*::*******:2::",
"**#######******#******::::*::22:##**::22::*:***:**",
"::***#*@*##***##******:::::222::::**#**:2:::****::",
"2:*:*#@@***#***#**:***:2::222:::2:**#***:*:::*::22",
"****##@@:****::**:*:::::22:22:******:::2:****::2*:",
"#*##@@@@*###***:**:::::2:::2:::*::::*:**2:::**::22",
"*#*#@..@##@@##****:::::::::22:*****::*::22:::*#*:2",
":**####*#.@##@@@:*:::::22:**:::::******:*62*22*:**",
"***#*##*#@@###@@#**:::::::#*****::::::::*2::2:**::",
"**#**###*@@#@@@@#*::::::***###**::*:::::::2::2**::",
"******#@@@....@.#*::::::****##::::*::**:2:2::::#*:",
"*##***#@@..@.@@@@#****:*#***#**::::::::22:22::2#::",
"*###**#@.@@#.@@@@**#**:***:**#*:::::::::2::2::::**",
"@@@@##@@@@##@@@.@#:**::*********:**:***::::22:::#*",
"#@@.@#@.@##@....@#:**:*#******::::*::*:::::22:::::",
"@@@..@@@@@@@..@..@.#*#######*##*::::22:**::22:2:*:",
"@#@...@#@@.@...@@@@@:*##@##**#**:::::::*:*:222:::*"
};
