/* XPM */
static char *_480e48928ed4af492ae26ce5b0e6f33YaWHRpY6lKgw9U4P[] = {
/* columns rows colors chars-per-pixel */
"50 50 135 2 ",
"   c #010204",
".  c #0A0B0D",
"X  c #101113",
"o  c #121315",
"O  c #121317",
"+  c #131416",
"@  c #141517",
"#  c #141519",
"$  c #151618",
"%  c #171B1E",
"&  c #191A1E",
"*  c #1A1B1F",
"=  c #1B1C1E",
"-  c #191D20",
";  c #1B1C20",
":  c #1B1F22",
">  c #1C1D21",
",  c #1D1E20",
"<  c #1E1F21",
"1  c #1D1E22",
"2  c #1E1F23",
"3  c #1C2023",
"4  c #1F2022",
"5  c #1D2124",
"6  c #1F2024",
"7  c #1E2225",
"8  c #1F2326",
"9  c #202123",
"0  c #202125",
"q  c #212224",
"w  c #222325",
"e  c #212226",
"r  c #222327",
"t  c #202425",
"y  c #202427",
"u  c #232426",
"i  c #242527",
"p  c #212528",
"a  c #232428",
"s  c #222629",
"d  c #23272A",
"f  c #242529",
"g  c #252628",
"h  c #262729",
"j  c #25262A",
"k  c #26272B",
"l  c #24282B",
"z  c #27282A",
"x  c #25292C",
"c  c #27282C",
"v  c #272B2C",
"b  c #262A2D",
"n  c #272B2E",
"m  c #28292B",
"M  c #28292D",
"N  c #292A2C",
"B  c #2A2B2D",
"V  c #292A2E",
"C  c #2A2B2F",
"Z  c #292D2E",
"A  c #282C2F",
"S  c #2B2C2E",
"D  c #2C2D2F",
"F  c #292D30",
"G  c #2B2C30",
"H  c #2A2E31",
"J  c #2B2F32",
"K  c #2C2D31",
"L  c #2D2E30",
"P  c #2E2F31",
"I  c #2D2E32",
"U  c #2E2F33",
"Y  c #2C3033",
"T  c #2F3032",
"R  c #2D3134",
"E  c #2F3034",
"W  c #2E3235",
"Q  c #2E3136",
"!  c #2F3336",
"~  c #303133",
"^  c #303135",
"/  c #313234",
"(  c #323335",
")  c #313236",
"_  c #323337",
"`  c #303437",
"'  c #333436",
"]  c #323637",
"[  c #343537",
"{  c #303338",
"}  c #313538",
"|  c #313439",
" . c #333438",
".. c #323639",
"X. c #33373A",
"o. c #343539",
"O. c #353638",
"+. c #363739",
"@. c #35363A",
"#. c #36373B",
"$. c #34383B",
"%. c #37383A",
"&. c #35393C",
"*. c #37383C",
"=. c #363A3D",
"-. c #373B3E",
";. c #38393B",
":. c #38393D",
">. c #393A3C",
",. c #3A3B3D",
"<. c #393A3E",
"1. c #3A3B3F",
"2. c #383C3F",
"3. c #3B3C3E",
"4. c #3C3D3F",
"5. c #393D40",
"6. c #3B3C40",
"7. c #3A3E41",
"8. c #3B3F42",
"9. c #3C3D41",
"0. c #3D3E40",
"q. c #3E3F41",
"w. c #3D3E42",
"e. c #3E3F43",
"r. c #3C4043",
"t. c #3F4042",
"y. c #3D4144",
"u. c #3F4044",
"i. c #3E4245",
"p. c #3F4346",
"a. c #404143",
"s. c #404145",
"d. c #414246",
"f. c #404447",
"g. c #414548",
/* pixels */
"s x l s : : R ..R Y n ! $.Y x d 8 8 f 0 M <.o.o._ I M f f M I I  ._ _ U G k I  . ._ U o.*.U G #. . .",
"x x s x s s R J n Y R Y Y J s s 0 2 0 ; ; c I o.o.*.o._ M M c M o.#.o._ G M G G _ *.#.E E  ._ U Q U ",
"s s s s 8 8 x 8 8 d R x x J 8 8 M f f 0 0 f f _ w.<.o.o.o._ M 0 _  .#. .I M M c G o.#.E E o.o.E Q Q ",
"l J Y J s 8 A s 3 3 J d J ..d n G f 0 f f 0 2 0 o._ E o.<.o._ f f M E  .U c k c M G E #.o._ U _ X.` ",
"A ` ..R x s Y x s 8 Y Y ! ..J $.o.G a M M 0 f f a M _ o.o._ _ <.M a a U  .I k f M a G 6.<.U G _ $...",
"J ` Y J x J Y s l n J ! ! J J $._ _ _ *.o.M M I 0 f I  .o._ o.1.6.M f  .w.6.E G a 6 f  .#.o. . .R ` ",
"R &...R R ` ..x n ! d Y ! A R A c I _ <.o.G M f M f f I o.o. ._ w. .I  .<.w.*. .I a 0 M U  .<.*.R ` ",
"x ` ..` J J ` x ..2.8 n $...&.8 _ _ I _ <._ o._ f 0 f I _ I M _ G  . .G M _ *.o.s.I a k M I _ o.` ..",
"x A ..` J ..2.! ! ..Y ! ..! ! x J ......R ` ....I s 8 J R ....A  .a U I 0 I *.*.o. .I c c f a G 5.R ",
"s J R Y J R ..R J $.5.r.$.A R ..x R R Y R &.$.R R J J $.r.&...5.*.M U I f _ #.#.I <.o.G f f M I Y l ",
"s x A Y R J J ..` ! ! r.5.R R R R R R ....R J R R ..J R 5.&...g.6.E U G M E E E _ w.w.E f 0 a a ` Y ",
"s 8 8 Y &.J x 5.g.5.! 2.i.$.Y 8 x J ..$.` Y R $.Y ..x y R 2.2.&.6.o._ M G M f f  . .o.o._ M f k A A ",
"8 8 3 x $...R &.5.i.2.5.r.2.5...s ..&.R Y $.&...` R x 8 l $.5.&.6.e.<.E I f a a  ._ o.<. .I M c x A ",
"* y 8 3 n &.$.R ! &.$.2.5.5.p.5.R Y J ....R R R ..R Y J s x ..&.*.s.w.*. .I M f c  .<.o.I G c 6 A ` ",
"8 x d % 3 Y $.Y &.$.R $.2.$.$.Y &.x s ..&.R Y &.&...` Y x s x R _ <.<.6.*. .o.M 6 c E E G I M 2 8 A ",
"Y x d 8 % s ! ! ! R R 2.5...$.....&...J Y ` ..R &.i.$.J R J y s k I _ *.<.*.<.c U c G  . .E c 2 n ` ",
"R R x s 3 3 x ....R &...R 5.5.r.&.&.&...Y J Y $.$.....&.&.R x J I  .a I *.o.6. ._ G M I  .<.E 2 q ' ",
"R R J x x s s A &.&.r...` ....` 5.5.2.2.&.` Y Y ..` R R ..R R ..M o.k c I  .6._ E c f I  .#._ 0 @ m ",
"Y R Y R R x s l $.5.5.......J J ..&.5.f.f.i.&.........R Y Y ..&.I M 0 G G M <.e.o.M k U  .E G k = D ",
"J ` ..` R x s x x &.$...2.&.J ..x ` 5.i.i.i.i.i...2.$.R J J J ..<._ M _ c 2 _ 6.#.I G I E I G M q D ",
"........$.R s s R i.5.&.5...J J J R $.&.&.5.5.r.5.5.o.J l x J R o.6.o.M 6 f  . . .U I G U _ _ I m E ",
"&.&...&.5.&.x : l ..$.&.r.i.r.5.$.&..._ $.i.r.<.&.&.` J s x Y &.E #. .G c M I  .o. .U I U _ I I M D ",
"&...` $.5...x s R 2.&.2.&.$.&.R o.o._ _ o.w.w.*..._ E I I C R <.6.<. .o.o.f = I <. .I U  .U M G ` ` ",
"R ` ` ` R J J ` Y ....&.` R o.J J _  .E R  . ._ I I _ o.*.E I o.<.u.<.o.6.I 2 M o.U M E o.U G _ Y I ",
"_ o. .o.<.*.I M M  . .<.w.o._ C ~ D m i i i h m = f B P ( ~ D D <.I w.<.w.w.f I w.M M  ._ G G I x ..",
"..o. .o.6.<.I f I o._ o.<.o._ I P P P ~ P D m i i I P m B ( ;.3.*._ <.o.6.<.M _ <.G M _ _ M f f A $.",
"_ _ _ o.<.<._ M o.<.I _ <.o.o._ B D D ~ ~ D m h ~ ' D 4 w D ( ' o.<.*.<.<.o.o.<.o._ I _ E M f 0 y I ",
"I _  . .*.*.o. .o.*.I E o.*.<. .;.+.( D i q < = E ~ B i B ' ,.,.<.u.o.<.w.o.w.<.<.o._ _ _ E M f w M ",
"_  .o._ E _  .o.o.o.I E <.<.w.o.3.3.,.~ i 4 q i m m m m P ~ ( ;.<.u.o.<.w.*.6.o.o.*._ I I _ M f q f ",
"_ o.*._ G I _ _ _ o._ _ <.1.1.o.P ' ;.' D m B ~ w i m m h q m +.*.w.o.*.<.o.*.E o.o.I f M M c f q 0 ",
"_ _ o._ I I _ I E o._ o.<.<.1.;.B ~ ;.;.+.~ B m i m D D P P ' t.*.w.6.o.*.o.o.o._  .I f c f f f q i ",
"I I E _ I _ _ I _ o._ o.<.;.<.;.B ~ +.3.3.;.~ B D ~ P D ' +.' ~ *.w.u.o.o.<.o.<.o.*.I M M m f m < < ",
"t._ ~  .B m P ( +.' ;.' ' a.3.' ~ ~ ' ' ;.+.~ m ' ( P ~ ;.t.3.+.<.1.w.1.1.6.*. .6.M I c 0 M 0 2 $ i ",
";.~ ' ' m m ~ ;.( m B ~ ;.;.' ;.;.,.;.;.;.;.~ D ' ' ( ' ,.a.a.,.;.;.*.<.w.1.o._ <._ I E M M f & @ i ",
"~ ~ ~ ~ i i D ~ B m m D ( ~ B +.,.;.;.+.+.' ( P P ~ ~ ~ ' ,.;.+.w.o. .<.w.*._ I _ o.I o.I 6 f O X q ",
"' ~ ~ D m D D m q ( ( h m D B ( ' ' ' ' ' ;.' ~ ' ' ' ( ( +.;.;.w.o. .<.<. .I I E _ I  .M 6 0 #   . ",
"~ E P B m B B i 4 ' P q m ~ P P D ~ ' +.+.;.' ( ' ' ( D D ~ +.;.;._ o.<.<.o._ o.o.E o._ M M 0 0 @ + ",
"m D ~ D m B D D B ~ h i B D D m m D ~ ( ( ' ( P m D m h h B ' ' *.o.*.w.<. . .*.<._ o.M M I 0 M = @ ",
"( +.;.+.' ( ( ' ( ~ m D D m D D m D P P P ~ ~ D P ~ ~ P ~ ' ;.,.<.6.<.<.o. . ._ <._ I f f f f M m 4 ",
"( ~ ~ ~ ( ~ D m B P P ~ D m +.' B D P P ~ ~ ' ' ~ ~ ( ~ ( ' +.+.<.<.<.o.<.<.o._ <.<.c c f 0 M f m 4 ",
"D P ' +.( P P ~ ( D P ( D D ~ +.( P ~ ' ' ;.;.( ~ D ' +.~ ~ +.'  .<.6.o.*.w.u.w.o.*.I w a f M G w w ",
"D D ' +.( P ~ P ( D ~ ' ( P ~ ( P D ~ +.' +.+.( ' ;.;.' ' ~ ~ ' w.w.<.*.*.6.w.u.<.*._ I G M M f i m ",
"D D ~ ' ~ ~ ( ( +.( ( ' ~ P P P D D ' ;.' ( ' ( D ' ( ~ ' ' ~ 3.6.*.o.#.*.#.<.6.*. .o._ G G G 0 m m ",
"P D ~ ( P ~ ' ' ' ~ ~ ~ D D ~ ' D ~ ' +.~ P ~ ( D ~ ~ D ~ ~ ~ ' _ _ o.#.<.<.#.<.<._  ._ f c I c m B ",
"+.( ~ ~ P P ~ ' D D ~ P m B ' ,.B ~ ~ P m i m D D i m D D D ~ D I  .#.*.<.6.6.o.w.o.<.o.f f E I m B ",
"3.' ' ( P D P P D ~ ' ( D D ( ' D P D m m i w m q = q m w m ~ m G  .o._  .*.<._ *.o.*.o.M a c k h i ",
";.' ' ;.( ~ ~ P ' ' ' ' D ~ ~ ~ D P B h B m i h i i i i q q q i c G U E _ _  .U _ I U E I k a f i i ",
"~ P ' ;.;.' ' ~ ,.' ~ P ~ ' ;.;.P P D C ~ ~ m m i P D m m i i D 0 f G o.*.o._  .I G k G E I c G m B ",
"$.' Y ` $.Y ~ Y  . ._ _ _ _ o.<.'  .~ ~ ~ m m m ~ D D ~ ~ m m D I 0 C ~ D ' ( ' D m D m D D < D h m ",
"$.` Y ` $.Y _ _ _  ._ ~ _ _ o.o.' ~ ~  .~ m m D i D D P D D D D ~ i m D D ~ ' ' ~ D ~ D D m q D h c "
};
