/* XPM */
static char *_9a3a2969b154745b317eeebd1cb2160P7NNlUab3BaopyAo[] = {
/* columns rows colors chars-per-pixel */
"10 10 2 1 ",
"  c None",
". c red",
/* pixels */
"          ",
"          ",
"   ....   ",
"  ......  ",
"  ......  ",
"  ......  ",
"  ......  ",
"   ....   ",
"          ",
"          "
};
